<svg xmlns="http://www.w3.org/2000/svg" viewBox="29.9 19.5 262.8 263.7" xmlns:xlink="http://www.w3.org/1999/xlink"><defs><path d="M100 40a30 30 0 1 1-60 0 30 30 0 1 1 60 0z" id="reuse-0"/></defs><g style="fill:#fff;fill-rule:evenodd"><path d="M232.6 170.5a14.4 14.4 0 0 0 .3 20.3l66.8 66.5c8 8 9.2 17.4 5.2 31.2-4 13.7-14.2 29.8-27.4 43a109.1 109.1 0 0 1-43 27.6c-13.7 4-23.1 2.8-31-5-18.6-18.5-35-35.2-47-47.4a1618.7 1618.7 0 0 0-18.8-18.5c-.6-.5-1-1-2-1.6-.3-.3-.7-.7-2-1.4-.7-.4-1.5-.9-3.6-1.4-2.2-.6-8.4-1.7-13.8 3.8a14.4 14.4 0 0 0 2.8 22.7l2.8 2.7 14 14c12 12.1 28.6 28.9 47.2 47.4 16.2 16.1 39.4 18.3 59.6 12.4 20.2-6 39.3-18.9 55.2-35 16-16 28.9-35.1 34.7-55.3 5.8-20.3 3.6-43.4-12.6-59.6-37-37-66.8-66.5-66.8-66.5a14.4 14.4 0 0 0-20.6 0z" transform="translate(-42.9 -106.6)"/><path d="M174.2 229.7a14.4 14.4 0 0 0 .4 20.4l74.8 74.5a14.4 14.4 0 1 0 20.4-20.4l-75-74.5a14.4 14.4 0 0 0-20.6 0z" transform="translate(-42.9 -106.6)"/><use transform="rotate(-45.1 208 68.1) scale(.48007)" xlink:href="#reuse-0"/><use transform="rotate(-45.1 167.2 -30.1) scale(.48007)" xlink:href="#reuse-0"/><use transform="rotate(-45.1 125.2 -131.2) scale(.48007)" xlink:href="#reuse-0"/></g></svg>