<svg xmlns="http://www.w3.org/2000/svg" version="1.0" viewBox="17.7 17.7 303.4 373"><g><g><path d="M86 0C61.6 0 57 35 70.8 35S110.7 0 86 0zM45.2 30.7c7.4.4 15.5-28.1 1.6-26.3-13.8 1.8-9 25.8-1.6 26.3zM11.4 48.5c5.3-2.4.7-25-8.2-18.8-8.9 6.2 3 21 8.2 18.8zM26.2 36.6c6.3-1.2 6.6-26.8-4.5-22.2C10.5 19 20 37.9 26.2 36.6zM58.8 94c1.1 8.4-6.2 12.5-13.4 7-22.8-17.3 37.8-26 33.8-49.6-3.3-19.7-63.7-13.6-70.6 17.2-4.6 20.8 19.2 49.7 44 49.7 12.2 0 26.3-11 29-25 2-10.7-23.7-6.4-22.8.6z" style="fill:#fff" transform="matrix(3.15366 0 0 3.15366 17.7 17.7)"/></g></g></svg>